# xmcd
#
# Track frame offsets:
#	152
#	17609
#	34872
#	51567
#	65379
#	81741
#	99023
#	113268
#	136568
#	145026
#	154789
#	171426
#	185371
#	202646
#	217833
#	234348
#	248060
#	263358
#	273608
#	286258
#	306848
#	319251
#
# Disc length: 4447 seconds
#
# Revision: 1
# Processed by: cddbd v1.4PL0 Copyright (c) Steve Scherf et al.
# Submitted via: audiograbber 1.80
#
DISCID=23115d16
DTITLE=Rolling Stones - The Best of
DYEAR=1900
DGENRE=
TTITLE0=Love is strong
TTITLE1=Satisfaction
TTITLE2=Jumpin Jack Flash
TTITLE3=Honky Tonk Women
TTITLE4=Miss you
TTITLE5=Brown sugar
TTITLE6=Respectable
TTITLE7=It´s only Rock´n´Roll
TTITLE8=Come on
TTITLE9=Stoned
TTITLE10=The last time
TTITLE11=Little Red Rooster
TTITLE12=Paint it black
TTITLE13=Ruby Tuesday
TTITLE14=The spider and the fly
TTITLE15=Time is on my side
TTITLE16=Out of time
TTITLE17=Play with fire
TTITLE18=As tears go by
TTITLE19=Angie
TTITLE20=Heart of stone
TTITLE21=Lady Jane
EXTD=
EXTT0=
EXTT1=
EXTT2=
EXTT3=
EXTT4=
EXTT5=
EXTT6=
EXTT7=
EXTT8=
EXTT9=
EXTT10=
EXTT11=
EXTT12=
EXTT13=
EXTT14=
EXTT15=
EXTT16=
EXTT17=
EXTT18=
EXTT19=
EXTT20=
EXTT21=
PLAYORDER=
